<?xml version="1.0" encoding="UTF-8"?>
<svg version="1.1" xmlns="http://www.w3.org/2000/svg" width="128" height="128">
<path d="M0 0 C337.92 0 675.84 0 1024 0 C1024 337.92 1024 675.84 1024 1024 C686.08 1024 348.16 1024 0 1024 C0 686.08 0 348.16 0 0 Z " fill="#FEFDFE" transform="translate(0,0)"/>
<path d="M0 0 C1.23386698 -0.00623996 2.46773396 -0.01247993 3.73899084 -0.01890898 C7.14294073 -0.03205224 10.54600093 -0.02739214 13.94989574 -0.0149641 C17.6289301 -0.00588381 21.30788881 -0.01989811 24.98690796 -0.03088379 C32.18606579 -0.04864248 39.38505652 -0.04484075 46.58422082 -0.03323323 C52.43729071 -0.02418801 58.29031387 -0.02297961 64.14338875 -0.02732849 C64.9774412 -0.02794142 65.81149366 -0.02855436 66.67082043 -0.02918586 C68.36536333 -0.03046481 70.05990621 -0.03176166 71.75444908 -0.03307623 C87.63345719 -0.04447444 103.51237283 -0.03138061 119.39136577 -0.00987476 C133.00481771 0.00799225 146.61813318 0.00489393 160.23158264 -0.0135498 C176.05344738 -0.03497561 191.87523111 -0.04337242 207.69710833 -0.03110075 C209.38561251 -0.0298266 211.07411671 -0.02856912 212.76262093 -0.02732849 C214.00866986 -0.02640284 214.00866986 -0.02640284 215.2798915 -0.02545848 C221.12279111 -0.02201047 226.96563918 -0.02782216 232.80853081 -0.0372467 C239.93368418 -0.04848723 247.05866138 -0.04538376 254.18379467 -0.02412373 C257.81649763 -0.01364029 261.44890729 -0.00944478 265.08160782 -0.02272034 C269.02551687 -0.03691474 272.9689499 -0.01992003 276.9128418 0 C278.62254014 -0.01338433 278.62254014 -0.01338433 280.36677784 -0.02703905 C288.69531365 0.05443066 296.06482666 1.6645359 302.83241272 6.75793457 C309.6818726 13.76668421 312.21700288 21.8689533 314.95741272 31.13293457 C315.3482308 32.42408154 315.7397597 33.71501356 316.13197327 35.0057373 C318.76621318 43.72847934 321.21574107 52.49951267 323.56044006 61.30432129 C325.02452473 66.78665382 326.68152838 72.15127743 328.53553772 77.51574707 C330.80919751 84.42695102 332.62119374 91.48632814 334.51991272 98.50793457 C334.79238831 99.51291992 335.06486389 100.51790527 335.34559631 101.55334473 C337.14265607 108.1860924 338.92714596 114.82212095 340.70301819 121.46057129 C341.41998774 124.13517197 342.14271027 126.80812088 342.86756897 129.48059082 C349.54288712 154.23952024 354.68742904 179.33544785 359.51991272 204.50793457 C359.69651428 205.42478027 359.87311584 206.34162598 360.05506897 207.28625488 C362.0074904 217.60682493 363.27801457 228.02681986 364.58241272 238.44543457 C364.74507629 239.72370117 364.90773987 241.00196777 365.07533264 242.31896973 C367.86966138 265.4215981 368.9288495 288.49559423 368.89491272 311.75793457 C368.89503357 313.04344208 368.89515442 314.32894958 368.89527893 315.65341187 C368.8695357 334.92985492 368.17251055 353.54703832 364.51991272 372.50793457 C364.37038147 373.36226074 364.22085022 374.21658691 364.06678772 375.09680176 C359.30313276 402.23419724 348.4585026 427.77750676 331.51991272 449.50793457 C330.83928772 450.41027832 330.15866272 451.31262207 329.45741272 452.24230957 C318.12218338 466.75483805 304.52855934 478.93374024 289.51991272 489.50793457 C288.87038635 489.96974121 288.22085999 490.43154785 287.551651 490.90734863 C268.59203876 504.22359232 247.39919458 514.07969151 226.04652405 522.89416504 C213.34601981 528.19821039 202.03451753 534.55453226 191.51991272 543.50793457 C190.68331116 544.15246582 189.84670959 544.79699707 188.98475647 545.46105957 C175.94185123 556.29225187 167.85324354 573.9420403 165.51991272 590.50793457 C165.41243813 592.80653323 165.35188738 595.10759361 165.32704163 597.40856934 C165.31886414 598.07131363 165.31068665 598.73405792 165.30226135 599.41688538 C165.27760176 601.59436184 165.26093733 603.77177375 165.24647522 605.94934082 C165.24115154 606.6998918 165.23582787 607.45044277 165.23034286 608.22373772 C165.20368926 612.20037688 165.18429392 616.17698558 165.16981506 620.15368652 C165.1565156 623.41927343 165.12872665 626.68422958 165.08778381 629.94958496 C165.03804592 633.91828702 165.01364455 637.88642077 165.00658798 641.85542107 C164.99994211 643.35471762 164.98489783 644.85400485 164.96069717 646.3531208 C164.77476181 658.57248322 166.77464602 669.65032241 174.51991272 679.50793457 C174.87956116 680.03258301 175.23920959 680.55723145 175.60975647 681.09777832 C182.57382673 690.4325959 194.56787533 696.35878644 205.51991272 699.50793457 C206.54471741 699.82504395 206.54471741 699.82504395 207.59022522 700.14855957 C217.73191986 703.02272404 228.72090612 702.74362867 239.17811584 703.0255127 C248.93955082 703.37203383 256.15710804 704.73154796 263.51991272 711.50793457 C267.50387636 715.89029458 268.08921136 719.37771692 267.84803772 725.10559082 C267.21371241 729.74975825 265.2042199 733.59119139 261.51991272 736.50793457 C258.79421256 737.41650129 257.20592988 737.63597436 254.40374279 737.64494896 C253.5619715 737.6500235 252.72020022 737.65509804 251.85292071 737.66032636 C250.92803341 737.66082412 250.00314612 737.66132188 249.05023193 737.66183472 C248.06776594 737.66621697 247.08529994 737.67059922 246.07306224 737.67511427 C242.76587443 737.68851785 239.45871327 737.69468461 236.15150452 737.70080566 C233.78644184 737.70870528 231.42138038 737.71697414 229.05632019 737.72558594 C221.94885057 737.74955344 214.84137564 737.76473428 207.73387906 737.77764601 C205.7265532 737.78135834 203.71922803 737.78533153 201.71190286 737.78939867 C189.24690804 737.81463256 176.78191211 737.83668577 164.31689739 737.84912682 C161.43022342 737.85205651 158.54354949 737.85501817 155.65687561 737.85803223 C154.93940782 737.85877828 154.22194002 737.85952433 153.48273078 737.86029299 C141.85685231 737.87295014 130.23112665 737.90617893 118.60531964 737.94783406 C106.67000369 737.9902478 94.734766 738.01382107 82.79937488 738.01904738 C76.09773984 738.02246186 69.39638033 738.03478771 62.69481468 738.06715012 C56.39189832 738.09715137 50.08939901 738.10357069 43.78642654 738.09176636 C41.47168361 738.09154497 39.15692176 738.09990336 36.8422451 738.1174202 C33.68450563 738.14001863 30.52829046 738.13185923 27.37054443 738.11593628 C26.4523493 738.12981837 25.53415417 738.14370045 24.58813494 738.15800321 C20.27072997 738.10427952 17.41623189 737.87616694 13.99018574 735.10665321 C9.62202169 730.5113598 8.93447591 726.28378071 9.08241272 720.07043457 C10.0005349 714.69286183 13.34351604 711.18401017 17.55897522 707.93762207 C22.91565106 704.42669221 27.05805461 703.40427433 33.47303772 703.29699707 C58.2400185 702.74730257 82.4321497 700.84447743 100.79335022 682.19934082 C111.40287329 669.87415138 112.6743619 657.26345753 112.68788147 641.68371582 C112.69110203 640.33241238 112.69446668 638.98110927 112.69796753 637.62980652 C112.70393466 634.8031229 112.70581003 631.97646974 112.70521545 629.14978027 C112.70511421 625.5605095 112.71873772 621.97143824 112.73598766 618.38221455 C112.74721109 615.591193 112.74913149 612.80021803 112.74860573 610.00917625 C112.75033134 608.05304363 112.76110819 606.09692555 112.77215576 604.14082336 C112.71516058 581.58108495 105.45822071 561.85088226 89.51991272 545.50793457 C75.73727049 532.89108199 58.55525364 525.82495483 41.50331116 518.7520752 C11.95395421 506.40747092 -14.33713423 490.66363863 -37.48008728 468.50793457 C-37.98282166 468.03243164 -38.48555603 467.55692871 -39.00352478 467.0670166 C-58.90212902 448.17218078 -72.96151598 424.55060009 -81.48008728 398.50793457 C-81.80638123 397.51575928 -81.80638123 397.51575928 -82.13926697 396.50354004 C-83.91801291 390.90762146 -85.2435849 385.24542047 -86.48008728 379.50793457 C-86.711474 378.48393555 -86.94286072 377.45993652 -87.18125916 376.40490723 C-91.59207253 355.92570395 -91.96455483 335.34884007 -91.97819138 314.48561478 C-91.98005074 312.36216467 -91.98650973 310.2387648 -91.99342346 308.11532593 C-92.03662112 288.07836485 -90.82620143 268.41287079 -88.48008728 248.50793457 C-88.32346619 247.17636826 -88.32346619 247.17636826 -88.16368103 245.81790161 C-87.59669558 241.11860918 -86.94179908 236.43783915 -86.23008728 231.75793457 C-86.12748596 231.07379486 -86.02488464 230.38965515 -85.91917419 229.68478394 C-82.33450617 205.90722698 -77.23997692 182.43379465 -71.85508728 159.00793457 C-71.67312805 158.21521149 -71.49116882 157.4224884 -71.30369568 156.60574341 C-68.75213678 145.53383125 -65.95571449 134.53974818 -63.02598572 123.56225586 C-62.30033879 120.83150627 -61.59348206 118.09609421 -60.89024353 115.35949707 C-56.37714971 97.834056 -51.41796678 80.47619322 -46.0901947 63.1817627 C-44.0436082 56.49062936 -42.16244771 49.7672401 -40.35508728 43.00793457 C-31.56972516 10.38935836 -31.56972516 10.38935836 -19.63270754 3.43106508 C-13.07129325 0.16888235 -7.2410969 -0.05657602 0 0 Z " fill="#FDFDFD" transform="translate(373.48008728027344,148.4920654296875)"/>
<path d="M0 0 C1.23386698 -0.00623996 2.46773396 -0.01247993 3.73899084 -0.01890898 C7.14294073 -0.03205224 10.54600093 -0.02739214 13.94989574 -0.0149641 C17.6289301 -0.00588381 21.30788881 -0.01989811 24.98690796 -0.03088379 C32.18606579 -0.04864248 39.38505652 -0.04484075 46.58422082 -0.03323323 C52.43729071 -0.02418801 58.29031387 -0.02297961 64.14338875 -0.02732849 C64.9774412 -0.02794142 65.81149366 -0.02855436 66.67082043 -0.02918586 C68.36536333 -0.03046481 70.05990621 -0.03176166 71.75444908 -0.03307623 C87.63345719 -0.04447444 103.51237283 -0.03138061 119.39136577 -0.00987476 C133.00481771 0.00799225 146.61813318 0.00489393 160.23158264 -0.0135498 C176.05344738 -0.03497561 191.87523111 -0.04337242 207.69710833 -0.03110075 C209.38561251 -0.0298266 211.07411671 -0.02856912 212.76262093 -0.02732849 C214.00866986 -0.02640284 214.00866986 -0.02640284 215.2798915 -0.02545848 C221.12279111 -0.02201047 226.96563918 -0.02782216 232.80853081 -0.0372467 C239.93368418 -0.04848723 247.05866138 -0.04538376 254.18379467 -0.02412373 C257.81649763 -0.01364029 261.44890729 -0.00944478 265.08160782 -0.02272034 C269.02551687 -0.03691474 272.9689499 -0.01992003 276.9128418 0 C278.62254014 -0.01338433 278.62254014 -0.01338433 280.36677784 -0.02703905 C288.69531365 0.05443066 296.06482666 1.6645359 302.83241272 6.75793457 C309.6818726 13.76668421 312.21700288 21.8689533 314.95741272 31.13293457 C315.3482308 32.42408154 315.7397597 33.71501356 316.13197327 35.0057373 C318.76621318 43.72847934 321.21574107 52.49951267 323.56044006 61.30432129 C325.02452473 66.78665382 326.68152838 72.15127743 328.53553772 77.51574707 C330.80919751 84.42695102 332.62119374 91.48632814 334.51991272 98.50793457 C334.79238831 99.51291992 335.06486389 100.51790527 335.34559631 101.55334473 C337.14265607 108.1860924 338.92714596 114.82212095 340.70301819 121.46057129 C341.41998774 124.13517197 342.14271027 126.80812088 342.86756897 129.48059082 C349.54288712 154.23952024 354.68742904 179.33544785 359.51991272 204.50793457 C359.69651428 205.42478027 359.87311584 206.34162598 360.05506897 207.28625488 C362.0074904 217.60682493 363.27801457 228.02681986 364.58241272 238.44543457 C364.74507629 239.72370117 364.90773987 241.00196777 365.07533264 242.31896973 C367.86966138 265.4215981 368.9288495 288.49559423 368.89491272 311.75793457 C368.89503357 313.04344208 368.89515442 314.32894958 368.89527893 315.65341187 C368.8695357 334.92985492 368.17251055 353.54703832 364.51991272 372.50793457 C364.37038147 373.36226074 364.22085022 374.21658691 364.06678772 375.09680176 C359.30313276 402.23419724 348.4585026 427.77750676 331.51991272 449.50793457 C330.83928772 450.41027832 330.15866272 451.31262207 329.45741272 452.24230957 C318.12218338 466.75483805 304.52855934 478.93374024 289.51991272 489.50793457 C288.87038635 489.96974121 288.22085999 490.43154785 287.551651 490.90734863 C268.59203876 504.22359232 247.39919458 514.07969151 226.04652405 522.89416504 C213.34601981 528.19821039 202.03451753 534.55453226 191.51991272 543.50793457 C190.68331116 544.15246582 189.84670959 544.79699707 188.98475647 545.46105957 C175.94185123 556.29225187 167.85324354 573.9420403 165.51991272 590.50793457 C165.41243813 592.80653323 165.35188738 595.10759361 165.32704163 597.40856934 C165.31886414 598.07131363 165.31068665 598.73405792 165.30226135 599.41688538 C165.27760176 601.59436184 165.26093733 603.77177375 165.24647522 605.94934082 C165.24115154 606.6998918 165.23582787 607.45044277 165.23034286 608.22373772 C165.20368926 612.20037688 165.18429392 616.17698558 165.16981506 620.15368652 C165.1565156 623.41927343 165.12872665 626.68422958 165.08778381 629.94958496 C165.03804592 633.91828702 165.01364455 637.88642077 165.00658798 641.85542107 C164.99994211 643.35471762 164.98489783 644.85400485 164.96069717 646.3531208 C164.77476181 658.57248322 166.77464602 669.65032241 174.51991272 679.50793457 C174.87956116 680.03258301 175.23920959 680.55723145 175.60975647 681.09777832 C182.57382673 690.4325959 194.56787533 696.35878644 205.51991272 699.50793457 C206.54471741 699.82504395 206.54471741 699.82504395 207.59022522 700.14855957 C217.73191986 703.02272404 228.72090612 702.74362867 239.17811584 703.0255127 C248.93955082 703.37203383 256.15710804 704.73154796 263.51991272 711.50793457 C267.50387636 715.89029458 268.08921136 719.37771692 267.84803772 725.10559082 C267.21371241 729.74975825 265.2042199 733.59119139 261.51991272 736.50793457 C258.79421256 737.41650129 257.20592988 737.63597436 254.40374279 737.64494896 C253.5619715 737.6500235 252.72020022 737.65509804 251.85292071 737.66032636 C250.92803341 737.66082412 250.00314612 737.66132188 249.05023193 737.66183472 C248.06776594 737.66621697 247.08529994 737.67059922 246.07306224 737.67511427 C242.76587443 737.68851785 239.45871327 737.69468461 236.15150452 737.70080566 C233.78644184 737.70870528 231.42138038 737.71697414 229.05632019 737.72558594 C221.94885057 737.74955344 214.84137564 737.76473428 207.73387906 737.77764601 C205.7265532 737.78135834 203.71922803 737.78533153 201.71190286 737.78939867 C189.24690804 737.81463256 176.78191211 737.83668577 164.31689739 737.84912682 C161.43022342 737.85205651 158.54354949 737.85501817 155.65687561 737.85803223 C154.93940782 737.85877828 154.22194002 737.85952433 153.48273078 737.86029299 C141.85685231 737.87295014 130.23112665 737.90617893 118.60531964 737.94783406 C106.67000369 737.9902478 94.734766 738.01382107 82.79937488 738.01904738 C76.09773984 738.02246186 69.39638033 738.03478771 62.69481468 738.06715012 C56.39189832 738.09715137 50.08939901 738.10357069 43.78642654 738.09176636 C41.47168361 738.09154497 39.15692176 738.09990336 36.8422451 738.1174202 C33.68450563 738.14001863 30.52829046 738.13185923 27.37054443 738.11593628 C26.4523493 738.12981837 25.53415417 738.14370045 24.58813494 738.15800321 C20.27072997 738.10427952 17.41623189 737.87616694 13.99018574 735.10665321 C9.62202169 730.5113598 8.93447591 726.28378071 9.08241272 720.07043457 C10.0005349 714.69286183 13.34351604 711.18401017 17.55897522 707.93762207 C22.91565106 704.42669221 27.05805461 703.40427433 33.47303772 703.29699707 C58.2400185 702.74730257 82.4321497 700.84447743 100.79335022 682.19934082 C111.40287329 669.87415138 112.6743619 657.26345753 112.68788147 641.68371582 C112.69110203 640.33241238 112.69446668 638.98110927 112.69796753 637.62980652 C112.70393466 634.8031229 112.70581003 631.97646974 112.70521545 629.14978027 C112.70511421 625.5605095 112.71873772 621.97143824 112.73598766 618.38221455 C112.74721109 615.591193 112.74913149 612.80021803 112.74860573 610.00917625 C112.75033134 608.05304363 112.76110819 606.09692555 112.77215576 604.14082336 C112.71516058 581.58108495 105.45822071 561.85088226 89.51991272 545.50793457 C75.73727049 532.89108199 58.55525364 525.82495483 41.50331116 518.7520752 C11.95395421 506.40747092 -14.33713423 490.66363863 -37.48008728 468.50793457 C-37.98282166 468.03243164 -38.48555603 467.55692871 -39.00352478 467.0670166 C-58.90212902 448.17218078 -72.96151598 424.55060009 -81.48008728 398.50793457 C-81.80638123 397.51575928 -81.80638123 397.51575928 -82.13926697 396.50354004 C-83.91801291 390.90762146 -85.2435849 385.24542047 -86.48008728 379.50793457 C-86.711474 378.48393555 -86.94286072 377.45993652 -87.18125916 376.40490723 C-91.59207253 355.92570395 -91.96455483 335.34884007 -91.97819138 314.48561478 C-91.98005074 312.36216467 -91.98650973 310.2387648 -91.99342346 308.11532593 C-92.03662112 288.07836485 -90.82620143 268.41287079 -88.48008728 248.50793457 C-88.32346619 247.17636826 -88.32346619 247.17636826 -88.16368103 245.81790161 C-87.59669558 241.11860918 -86.94179908 236.43783915 -86.23008728 231.75793457 C-86.12748596 231.07379486 -86.02488464 230.38965515 -85.91917419 229.68478394 C-82.33450617 205.90722698 -77.23997692 182.43379465 -71.85508728 159.00793457 C-71.67312805 158.21521149 -71.49116882 157.4224884 -71.30369568 156.60574341 C-68.75213678 145.53383125 -65.95571449 134.53974818 -63.02598572 123.56225586 C-62.30033879 120.83150627 -61.59348206 118.09609421 -60.89024353 115.35949707 C-56.37714971 97.834056 -51.41796678 80.47619322 -46.0901947 63.1817627 C-44.0436082 56.49062936 -42.16244771 49.7672401 -40.35508728 43.00793457 C-31.56972516 10.38935836 -31.56972516 10.38935836 -19.63270754 3.43106508 C-13.07129325 0.16888235 -7.2410969 -0.05657602 0 0 Z M-5.20987952 31.33696681 C-6.94635359 34.30485076 -7.82912485 37.40372624 -8.73008728 40.69543457 C-9.04042908 41.78682739 -9.04042908 41.78682739 -9.35704041 42.90026855 C-10.07447726 45.43352134 -10.77799884 47.97038636 -11.48008728 50.50793457 C-12.64529844 54.69584057 -13.81260062 58.88316243 -14.98008728 63.07043457 C-15.28140564 64.1541333 -15.582724 65.23783203 -15.89317322 66.35437012 C-17.49936386 72.10465471 -19.16568459 77.82002088 -20.98008728 83.50793457 C-40.10915521 143.65458827 -54.33563503 206.64695826 -60.48008728 269.50793457 C-60.56670624 270.39307739 -60.6533252 271.27822021 -60.74256897 272.19018555 C-61.41708406 279.57169421 -61.65483014 286.89464868 -61.68321228 294.30480957 C-61.69176239 296.09172211 -61.69176239 296.09172211 -61.70048523 297.91473389 C-61.70987513 300.4257724 -61.71644508 302.9368229 -61.72032166 305.44787598 C-61.72995521 309.20640819 -61.76100821 312.96437557 -61.79258728 316.72277832 C-61.8601135 332.21574087 -60.87103576 347.20138862 -58.48008728 362.50793457 C-58.33499222 363.45411148 -58.18989716 364.40028839 -58.04040527 365.37513733 C-51.65889044 406.52875832 -28.46996735 440.27683724 4.76991272 464.88293457 C21.21427027 476.71130116 39.44644169 485.78093855 58.51991272 492.50793457 C59.70013 492.92679932 59.70013 492.92679932 60.90419006 493.35412598 C72.87739128 497.5320822 85.00736352 500.46846896 97.51991272 502.50793457 C98.54769836 502.68743652 99.57548401 502.86693848 100.63441467 503.05187988 C111.44358808 504.74290166 122.14113414 504.81287514 133.0606842 504.76867676 C136.18466367 504.75801223 139.30806064 504.76859815 142.43202209 504.78137207 C160.13146971 504.79631488 177.34646384 503.89519872 194.51991272 499.32043457 C195.7114093 499.01001221 196.90290588 498.69958984 198.13050842 498.37976074 C239.13097891 487.46672078 279.22401412 466.68779546 305.51991272 432.50793457 C306.23534241 431.64297363 306.95077209 430.7780127 307.68788147 429.88684082 C324.01238844 409.51732327 331.01343827 385.75216752 335.51991272 360.50793457 C335.73518616 359.37484863 335.95045959 358.2417627 336.17225647 357.07434082 C345.56885674 305.42733348 337.53007949 248.5501205 327.51991272 197.50793457 C327.37577942 196.76976501 327.23164612 196.03159546 327.08314514 195.27105713 C323.94787137 179.25168762 320.59382973 163.31824563 316.51991272 147.50793457 C316.32047058 146.73116364 316.12102844 145.9543927 315.9155426 145.15408325 C308.19611719 115.05459312 308.19611719 115.05459312 299.63221741 85.18811035 C298.47300211 81.35272593 297.32342142 77.51453749 296.17466736 73.67601013 C295.0046564 69.76909249 293.83122983 65.86320684 292.65681458 61.95761108 C292.07100529 60.00931445 291.48574887 58.06085148 290.90107727 56.11221313 C290.07376306 53.35783034 289.2426736 50.60461399 288.41053772 47.85168457 C288.16389374 47.02865341 287.91724976 46.20562225 287.66313171 45.35765076 C285.6231234 36.82736736 285.6231234 36.82736736 281.51991272 29.50793457 C280.00069902 29.40749364 278.47682128 29.37686617 276.9542942 29.37371349 C275.96138551 29.36925565 274.96847682 29.36479781 273.94547999 29.36020488 C272.84151893 29.36038924 271.73755786 29.3605736 270.60014343 29.36076355 C269.43759328 29.35708686 268.27504313 29.35341017 267.07726419 29.34962207 C263.8358605 29.34047368 260.59448657 29.33588084 257.35307217 29.33323276 C253.86287582 29.32933794 250.37269426 29.31975909 246.88250732 29.3110199 C238.44680138 29.29123267 230.0110942 29.28118665 221.57537085 29.27229211 C217.60690613 29.2679131 213.63844275 29.26254531 209.6699791 29.25730324 C196.48500915 29.24028908 183.30004005 29.2257935 170.11506081 29.2185545 C166.69141768 29.21664447 163.26777457 29.21472416 159.84413147 29.21276855 C158.99315869 29.21228481 158.14218592 29.21180107 157.26542608 29.21130268 C143.47114069 29.20299716 129.67694188 29.17765231 115.88269432 29.14518788 C101.73376115 29.11215903 87.58487203 29.09410955 73.43590009 29.09091026 C65.48633737 29.08874133 57.5369009 29.07993698 49.58737564 29.05444908 C42.81904608 29.03279901 36.05087342 29.02466342 29.28251316 29.03441586 C25.82690719 29.03897718 22.37162534 29.03696924 18.91606331 29.01765442 C15.17498021 29.00011347 11.43473107 29.00695424 7.69364929 29.02018738 C6.59414967 29.00921813 5.49465005 28.99824889 4.36183226 28.98694724 C3.36370808 28.99552813 2.36558389 29.00410902 1.33721352 29.01294994 C0.4731324 29.01197313 -0.39094872 29.01099633 -1.28121412 29.00998992 C-3.63110886 29.32759843 -3.63110886 29.32759843 -5.20987952 31.33696681 Z " fill="#131434" transform="translate(373.48008728027344,148.4920654296875)"/>
<path d="M0 0 C6.04708878 4.12943222 11.79338914 9.95362759 13.9375 17.0625 C14.93379048 26.2388597 14.64205812 34.45181834 8.9375 42.0625 C4.54580807 46.99730096 -0.46178728 50.85831592 -7.0625 52.0625 C-8.031875 51.99546875 -9.00125 51.9284375 -10 51.859375 C-14.46569828 51.62320826 -18.2264713 51.42988129 -21.74169922 54.55566406 C-25.38472326 58.70106337 -28.43368942 63.27353847 -31.51464844 67.84277344 C-33.7515202 71.05060278 -36.24419565 73.99293861 -38.8125 76.9375 C-42.0512572 80.69613575 -45.2211787 84.4935462 -48.3125 88.375 C-52.75603033 93.84150134 -57.54552453 98.95010347 -62.39550781 104.05395508 C-65.74056305 107.57414644 -69.02372083 111.13246075 -72.24609375 114.765625 C-77.30324612 120.40654373 -82.61740576 125.76862717 -87.9831543 131.11352539 C-89.62991404 132.75489796 -91.27122095 134.40158819 -92.91210938 136.04882812 C-107.07869132 150.22688131 -107.07869132 150.22688131 -114.5 154.875 C-117.52227118 157.44041623 -118.28953543 159.39017097 -118.609375 163.2265625 C-118.71207441 165.62887907 -118.75028355 168.02589425 -118.77661133 170.43017578 C-118.88036634 176.60073443 -119.72311812 180.46455392 -124.0625 185.0625 C-124.58070313 185.68253906 -125.09890625 186.30257812 -125.6328125 186.94140625 C-130.47710055 192.33771782 -135.75814492 195.56278595 -143.0234375 196.40625 C-149.43556612 196.60006749 -154.24374866 195.70738697 -160.0625 193.0625 C-163.01899257 191.69143463 -163.01899257 191.69143463 -165.52905273 193.23974609 C-166.50817627 193.84898926 -167.4872998 194.45823242 -168.49609375 195.0859375 C-170.15995117 196.10989624 -170.15995117 196.10989624 -171.85742188 197.15454102 C-173.07161905 197.91552022 -174.28581163 198.67650676 -175.5 199.4375 C-176.76167565 200.21718881 -178.02405722 200.99573639 -179.28710938 201.77319336 C-181.91422476 203.39180497 -184.53821297 205.01530366 -187.15966797 206.64306641 C-193.1084294 210.33458303 -199.08178432 213.9855373 -205.0625 217.625 C-205.63308136 217.97261383 -206.20366272 218.32022766 -206.79153442 218.67837524 C-217.92749816 225.45504121 -229.21313195 231.95332957 -240.5546875 238.37890625 C-241.6055957 238.97968994 -242.65650391 239.58047363 -243.73925781 240.19946289 C-246.12610133 241.53754714 -248.5158543 242.8303734 -250.94042969 244.09545898 C-251.58271515 244.43951279 -252.22500061 244.78356659 -252.88674927 245.13804626 C-254.68935225 246.10288058 -256.50189508 247.04907673 -258.31494141 247.99414062 C-261.29075416 249.84898009 -261.29075416 249.84898009 -262.19384766 253.08203125 C-262.44603515 255.07815375 -262.62276988 257.0848578 -262.734375 259.09375 C-263.42209422 265.3159715 -267.59881865 269.59881865 -271.875 273.875 C-279.96905432 279.42974316 -287.15968863 281.56292597 -297.0625 280.0625 C-305.19251574 277.41686543 -310.87066775 273.53425714 -315.0625 266.0625 C-315.68125 265.010625 -316.3 263.95875 -316.9375 262.875 C-319.12455785 255.46330396 -319.31154643 247.89492071 -316.125 240.75 C-312.41455028 234.29612994 -307.08453711 229.92221514 -300.8125 226.0625 C-293.04605174 223.99144713 -285.75173722 223.76709841 -278.5625 227.625 C-277.8096875 228.10066406 -277.056875 228.57632813 -276.28125 229.06640625 C-273.37984862 230.36897201 -272.10679172 229.89457864 -269.0625 229.0625 C-266.55521999 227.88254425 -266.55521999 227.88254425 -264.01171875 226.3515625 C-263.01954346 225.77591553 -262.02736816 225.20026855 -261.00512695 224.60717773 C-259.93093506 223.97368408 -258.85674316 223.34019043 -257.75 222.6875 C-256.61715576 222.0262915 -255.48431152 221.36508301 -254.31713867 220.68383789 C-251.21282413 218.87007123 -248.11483237 217.04577908 -245.0189209 215.2177124 C-243.04094723 214.04977369 -241.06203992 212.88342931 -239.08300781 211.71728516 C-224.49229801 203.11462289 -209.95921086 194.4229637 -195.50244141 185.59692383 C-190.59851976 182.60379085 -185.69240377 179.6167641 -180.75 176.6875 C-179.86699219 176.16414062 -178.98398437 175.64078125 -178.07421875 175.1015625 C-176.0625 174.0625 -176.0625 174.0625 -174.0625 174.0625 C-174.14951172 172.82886719 -174.14951172 172.82886719 -174.23828125 171.5703125 C-174.60748121 162.43525066 -173.43469802 155.90118776 -167.1953125 148.99609375 C-159.62728883 141.94340243 -153.72906743 140.7276789 -143.5625 140.76171875 C-140.0625 141.0625 -140.0625 141.0625 -136.5625 142.453125 C-132.90043586 143.50552732 -132.90043586 143.50552732 -129.75 140.84765625 C-128.49767498 139.63014676 -127.27058721 138.38641691 -126.0625 137.125 C-125.37043457 136.43857422 -124.67836914 135.75214844 -123.96533203 135.04492188 C-122.31896472 133.4057921 -120.68339117 131.75578629 -119.05566406 130.09814453 C-115.50780012 126.48635648 -111.9036239 122.93185897 -108.3046875 119.37109375 C-92.71935337 104.15371639 -92.71935337 104.15371639 -78.0625 88.0625 C-76.44282183 86.28679779 -74.81838282 84.51541693 -73.1875 82.75 C-69.12077977 78.29130673 -65.26669731 73.70932268 -61.48046875 69.01171875 C-59.21862541 66.2529276 -56.90413366 63.55343249 -54.56274414 60.86254883 C-50.35394073 56.01463326 -46.19001837 51.13217399 -42.25 46.0625 C-41.28126953 44.825 -41.28126953 44.825 -40.29296875 43.5625 C-38.69074626 40.30719081 -39.12910941 38.50886524 -40.0625 35.0625 C-40.3925 34.4025 -40.7225 33.7425 -41.0625 33.0625 C-41.75545042 23.13399728 -42.0425302 15.15200528 -35.51953125 7.17578125 C-26.70078933 -2.45016817 -12.12358392 -6.08291319 0 0 Z " fill="#6F52FD" transform="translate(663.0625,290.9375)"/>
<path d="M0 0 C0.99 0.309375 1.98 0.61875 3 0.9375 C6.97731122 2.08433207 10.88767379 2.56712356 15 3 C15 3.33 15 3.66 15 4 C4.27475338 4.56229448 4.27475338 4.56229448 0 1 C0 0.67 0 0.34 0 0 Z " fill="#4F56F9" transform="translate(358,566)"/>
<path d="M0 0 C0 3 0 3 -1 6 C-1.99 6.66 -2.98 7.32 -4 8 C-4.99 7.67 -5.98 7.34 -7 7 C-4.69 4.69 -2.38 2.38 0 0 Z " fill="#8A65FB" transform="translate(562,403)"/>
</svg>
